# xmcd CD database file
#
# Track frame offsets:
#	150
#	51906
#	112637
#	145142
#	181139
#
# Disc length: 3039 seconds
#
# Revision: 1
# Processed by: cddbd v1.4PL0 Copyright (c) Steve Scherf et al.
# Submitted via: CDex 1.51
#
DISCID=380bdd05
DTITLE=roland sante  - The Harmony Of Hearts
DYEAR=2000
DGENRE=New Age
TTITLE0=Romantic Moments
TTITLE1=Journey To The Heavenly Town
TTITLE2=Approaches
TTITLE3=Dreams Under The Stars
TTITLE4=Our Love With God
EXTD=YEAR: 2000
EXTT0=
EXTT1=
EXTT2=
EXTT3=
EXTT4=
PLAYORDER=
